<?xml version="1.0" encoding="utf-8"?>
<svg xmlns="http://www.w3.org/2000/svg" xmlns:xlink="http://www.w3.org/1999/xlink" style="margin: auto; background: rgb(241, 242, 243); display: block; z-index: 1; position: relative; shape-rendering: auto;" width="2560" height="1271" preserveAspectRatio="xMidYMid" viewBox="0 0 2560 1271">
<g transform="translate(1280,635.5) scale(1,1) translate(-1280,-635.5)"><path id="path0" d="M 51.45096033424042 1147.3067002210469
c 0 34.56928022660144 -8.458440906508862 9.92947410764084 -18.3879150141497 9.92947410764084
S 14.675130305941014 1181.8759804476483 14.675130305941014 1147.3067002210469
s 8.458440906508862 -9.92947410764084 18.3879150141497 -9.92947410764084
S 51.45096033424042 1112.7374199944454 51.45096033424042 1147.3067002210469
z" fill="none" stroke="none"></path>
<circle cx="0" cy="0" r="4.848870977038374" fill="#0e3240" opacity="0.9">
  <animateMotion begin="-4.868858313092106s" dur="10s" repeatCount="indefinite">
    <mpath xlink:href="#path0"></mpath>
  </animateMotion>
</circle><path id="path1" d="M 1429.722623358225 1219.1628909228214
c 0 36.4336848288684 -8.914625011318863 10.464994578504754 -19.37961958982362 10.464994578504754
S 1390.963384178578 1255.5965757516897 1390.963384178578 1219.1628909228214
s 8.914625011318863 -10.464994578504754 19.37961958982362 -10.464994578504754
S 1429.722623358225 1182.729206093953 1429.722623358225 1219.1628909228214
z" fill="none" stroke="none"></path>
<circle cx="0" cy="0" r="7.124678913510192" fill="#0e3240" opacity="0.9">
  <animateMotion begin="-3.4641672825423875s" dur="10s" repeatCount="indefinite">
    <mpath xlink:href="#path1"></mpath>
  </animateMotion>
</circle><path id="path2" d="M 1140.0568577802896 291.4352037300057
c 0 28.99994700233829 -7.095731713338091 8.329772011309934 -15.425503724648024 8.329772011309934
S 1109.2058503309936 320.43515073234397 1109.2058503309936 291.4352037300057
s 7.095731713338091 -8.329772011309934 15.425503724648024 -8.329772011309934
S 1140.0568577802896 262.4352567276674 1140.0568577802896 291.4352037300057
z" fill="none" stroke="none"></path>
<circle cx="0" cy="0" r="4.732578409954506" fill="#0e3240" opacity="0.9">
  <animateMotion begin="-1.0540775242748235s" dur="10s" repeatCount="indefinite">
    <mpath xlink:href="#path2"></mpath>
  </animateMotion>
</circle><path id="path3" d="M 1460.6527372720336 931.2480472764532
c 0 32.140961025442884 -7.864277697714748 9.23197816688253 -17.09625586459728 9.23197816688253
S 1426.4602255428392 963.3890083018961 1426.4602255428392 931.2480472764532
s 7.864277697714748 -9.23197816688253 17.09625586459728 -9.23197816688253
S 1460.6527372720336 899.1070862510104 1460.6527372720336 931.2480472764532
z" fill="none" stroke="none"></path>
<circle cx="0" cy="0" r="5.113154517166684" fill="#0e3240" opacity="0.9">
  <animateMotion begin="-9.835607817737316s" dur="10s" repeatCount="indefinite">
    <mpath xlink:href="#path3"></mpath>
  </animateMotion>
</circle><path id="path4" d="M 1916.6205301387815 706.3584790611551
c 0 22.052340238610636 -5.3957853775323885 6.334182834494545 -11.729968212026932 6.334182834494545
S 1893.1605937147276 728.4108192997658 1893.1605937147276 706.3584790611551
s 5.3957853775323885 -6.334182834494545 11.729968212026932 -6.334182834494545
S 1916.6205301387815 684.3061388225444 1916.6205301387815 706.3584790611551
z" fill="none" stroke="none"></path>
<circle cx="0" cy="0" r="4.5394969104268155" fill="#fc5b50" opacity="0.9">
  <animateMotion begin="-7.884225813902206s" dur="10s" repeatCount="indefinite">
    <mpath xlink:href="#path4"></mpath>
  </animateMotion>
</circle><path id="path5" d="M 1803.5020705028041 410.5121837736682
c 0 24.222931560693326 -5.926887509531345 6.957650554667231 -12.884538064198576 6.957650554667231
S 1777.732994374407 434.7351153343615 1777.732994374407 410.5121837736682
s 5.926887509531345 -6.957650554667231 12.884538064198576 -6.957650554667231
S 1803.5020705028041 386.2892522129749 1803.5020705028041 410.5121837736682
z" fill="none" stroke="none"></path>
<circle cx="0" cy="0" r="4.891890742718347" fill="#fc5b50" opacity="0.9">
  <animateMotion begin="-9.7525728901198s" dur="10s" repeatCount="indefinite">
    <mpath xlink:href="#path5"></mpath>
  </animateMotion>
</circle><path id="path6" d="M 2299.95799844962 701.0768999082737
c 0 23.046299815955084 -5.638988252840073 6.619681862029652 -12.258670114869725 6.619681862029652
S 2275.4406582198803 724.1231997242288 2275.4406582198803 701.0768999082737
s 5.638988252840073 -6.619681862029652 12.258670114869725 -6.619681862029652
S 2299.95799844962 678.0306000923187 2299.95799844962 701.0768999082737
z" fill="none" stroke="none"></path>
<circle cx="0" cy="0" r="6.516189427801739" fill="#fc5b50" opacity="0.9">
  <animateMotion begin="-5.649682249363104s" dur="10s" repeatCount="indefinite">
    <mpath xlink:href="#path6"></mpath>
  </animateMotion>
</circle><path id="path7" d="M 1588.0526752525075 476.6296470759351
c 0 21.78493953285833 -5.330357545273847 6.2573762487997335 -11.58773379407358 6.2573762487997335
S 1564.8772076643604 498.41458660879346 1564.8772076643604 476.6296470759351
s 5.330357545273847 -6.2573762487997335 11.58773379407358 -6.2573762487997335
S 1588.0526752525075 454.84470754307677 1588.0526752525075 476.6296470759351
z" fill="none" stroke="none"></path>
<circle cx="0" cy="0" r="4.960316412370934" fill="#0e3240" opacity="0.9">
  <animateMotion begin="-1.1685369889655095s" dur="10s" repeatCount="indefinite">
    <mpath xlink:href="#path7"></mpath>
  </animateMotion>
</circle><path id="path8" d="M 1179.932902832935 469.1768745595496
c 0 21.00041690575891 -5.138399881196328 6.032034643143517 -11.170434524339845 6.032034643143517
S 1157.5920337842551 490.17729146530854 1157.5920337842551 469.1768745595496
s 5.138399881196328 -6.032034643143517 11.170434524339845 -6.032034643143517
S 1179.932902832935 448.1764576537907 1179.932902832935 469.1768745595496
z" fill="none" stroke="none"></path>
<circle cx="0" cy="0" r="6.717120684775074" fill="#fc5b50" opacity="0.9">
  <animateMotion begin="-7.45483705855894s" dur="10s" repeatCount="indefinite">
    <mpath xlink:href="#path8"></mpath>
  </animateMotion>
</circle><path id="path9" d="M 1677.9827105805903 243.455076028622
c 0 30.92188784677274 -7.565993834848649 8.881818849604937 -16.447812684453584 8.881818849604937
S 1645.0870852116832 274.3769638753947 1645.0870852116832 243.455076028622
s 7.565993834848649 -8.881818849604937 16.447812684453584 -8.881818849604937
S 1677.9827105805903 212.53318818184925 1677.9827105805903 243.455076028622
z" fill="none" stroke="none"></path>
<circle cx="0" cy="0" r="6.520681254097113" fill="#fc5b50" opacity="0.9">
  <animateMotion begin="-7.53402511910066s" dur="10s" repeatCount="indefinite">
    <mpath xlink:href="#path9"></mpath>
  </animateMotion>
</circle><path id="path10" d="M 1787.0240981197712 984.1961125889163
c 0 35.008957143172864 -8.566021428648678 10.055764285804973 -18.62178571445365 10.055764285804973
S 1749.780526690864 1019.2050697320892 1749.780526690864 984.1961125889163
s 8.566021428648678 -10.055764285804973 18.62178571445365 -10.055764285804973
S 1787.0240981197712 949.1871554457434 1787.0240981197712 984.1961125889163
z" fill="none" stroke="none"></path>
<circle cx="0" cy="0" r="7.376286667409218" fill="#0e3240" opacity="0.9">
  <animateMotion begin="-1.0365515043715678s" dur="10s" repeatCount="indefinite">
    <mpath xlink:href="#path10"></mpath>
  </animateMotion>
</circle><path id="path11" d="M 2130.5309007198 1177.6386071719776
c 0 35.55071823307682 -8.698579993199646 10.211376513756107 -18.909956506955755 10.211376513756107
S 2092.710987705888 1213.1893254050544 2092.710987705888 1177.6386071719776
s 8.698579993199646 -10.211376513756107 18.909956506955755 -10.211376513756107
S 2130.5309007198 1142.0878889389007 2130.5309007198 1177.6386071719776
z" fill="none" stroke="none"></path>
<circle cx="0" cy="0" r="5.008571203926743" fill="#fc5b50" opacity="0.9">
  <animateMotion begin="-5.689627736768008s" dur="10s" repeatCount="indefinite">
    <mpath xlink:href="#path11"></mpath>
  </animateMotion>
</circle><path id="path12" d="M 1136.5098846033102 602.2859547833156
c 0 36.96660715362017 -9.04502089929004 10.618068012210049 -19.66308891150009 10.618068012210049
S 1097.1837067803099 639.2525619369358 1097.1837067803099 602.2859547833156
s 9.04502089929004 -10.618068012210049 19.66308891150009 -10.618068012210049
S 1136.5098846033102 565.3193476296954 1136.5098846033102 602.2859547833156
z" fill="none" stroke="none"></path>
<circle cx="0" cy="0" r="7.758093534837695" fill="#fc5b50" opacity="0.9">
  <animateMotion begin="-7.728892357334858s" dur="10s" repeatCount="indefinite">
    <mpath xlink:href="#path12"></mpath>
  </animateMotion>
</circle><path id="path13" d="M 2280.3666963260807 415.35923199283843
c 0 19.77844595067937 -4.839406987932186 5.681042985833436 -10.520449973765622 5.681042985833436
S 2259.3257963785495 435.1376779435178 2259.3257963785495 415.35923199283843
s 4.839406987932186 -5.681042985833436 10.520449973765622 -5.681042985833436
S 2280.3666963260807 395.58078604215905 2280.3666963260807 415.35923199283843
z" fill="none" stroke="none"></path>
<circle cx="0" cy="0" r="4.001215330139641" fill="#fc5b50" opacity="0.9">
  <animateMotion begin="-0.4958173474678196s" dur="10s" repeatCount="indefinite">
    <mpath xlink:href="#path13"></mpath>
  </animateMotion>
</circle><path id="path14" d="M 2110.1720854623313 347.4675839268751
c 0 24.899447543673297 -6.092418016005167 7.151968975310415 -13.244386991315583 7.151968975310415
S 2083.6833114797005 372.3670314705484 2083.6833114797005 347.4675839268751
s 6.092418016005167 -7.151968975310415 13.244386991315583 -7.151968975310415
S 2110.1720854623313 322.56813638320176 2110.1720854623313 347.4675839268751
z" fill="none" stroke="none"></path>
<circle cx="0" cy="0" r="6.105890569539261" fill="#0e3240" opacity="0.9">
  <animateMotion begin="-6.847443842317011s" dur="10s" repeatCount="indefinite">
    <mpath xlink:href="#path14"></mpath>
  </animateMotion>
</circle><path id="path15" d="M 84.03596711572538 426.1844178315239
c 0 34.599484529355244 -8.465831321012454 9.938149811623315 -18.40398113263577 9.938149811623315
S 47.22800485045385 460.78390236087915 47.22800485045385 426.1844178315239
s 8.465831321012454 -9.938149811623315 18.40398113263577 -9.938149811623315
S 84.03596711572538 391.5849333021686 84.03596711572538 426.1844178315239
z" fill="none" stroke="none"></path>
<circle cx="0" cy="0" r="6.949359421855122" fill="#fc5b50" opacity="0.9">
  <animateMotion begin="-7.242848769878489s" dur="10s" repeatCount="indefinite">
    <mpath xlink:href="#path15"></mpath>
  </animateMotion>
</circle><path id="path16" d="M 1313.5899549659875 647.5602325533769
c 0 30.741874609134484 -7.521948042660565 8.830112919645012 -16.352060962305575 8.830112919645012
S 1280.8858330413764 678.3021071625113 1280.8858330413764 647.5602325533769
s 7.521948042660565 -8.830112919645012 16.352060962305575 -8.830112919645012
S 1313.5899549659875 616.8183579442424 1313.5899549659875 647.5602325533769
z" fill="none" stroke="none"></path>
<circle cx="0" cy="0" r="4.81433098667444" fill="#fc5b50" opacity="0.9">
  <animateMotion begin="-0.08331418929496737s" dur="10s" repeatCount="indefinite">
    <mpath xlink:href="#path16"></mpath>
  </animateMotion>
</circle><path id="path17" d="M 85.8972425635315 433.5464910939456
c 0 37.09682163713541 -9.076881889937388 10.655470044709109 -19.7323519346465 10.655470044709109
S 46.4325386942385 470.643312731081 46.4325386942385 433.5464910939456
s 9.076881889937388 -10.655470044709109 19.7323519346465 -10.655470044709109
S 85.8972425635315 396.44966945681017 85.8972425635315 433.5464910939456
z" fill="none" stroke="none"></path>
<circle cx="0" cy="0" r="7.395551762901598" fill="#fc5b50" opacity="0.9">
  <animateMotion begin="-0.9464303173391597s" dur="10s" repeatCount="indefinite">
    <mpath xlink:href="#path17"></mpath>
  </animateMotion>
</circle><path id="path18" d="M 1964.0337461452473 947.4588418432004
c 0 20.475595931639752 -5.009986238592705 5.881288193130567 -10.891274431723271 5.881288193130567
S 1942.2511972818006 967.9344377748401 1942.2511972818006 947.4588418432004
s 5.009986238592705 -5.881288193130567 10.891274431723271 -5.881288193130567
S 1964.0337461452473 926.9832459115606 1964.0337461452473 947.4588418432004
z" fill="none" stroke="none"></path>
<circle cx="0" cy="0" r="6.536235924729135" fill="#fc5b50" opacity="0.9">
  <animateMotion begin="-1.1352662824403148s" dur="10s" repeatCount="indefinite">
    <mpath xlink:href="#path18"></mpath>
  </animateMotion>
</circle><path id="path19" d="M 1789.2030804909316 937.8580430677671
c 0 36.26477870471913 -8.873296917112125 10.416478989653367 -19.28977590676549 10.416478989653367
S 1750.6235286774006 974.1228217724862 1750.6235286774006 937.8580430677671
s 8.873296917112125 -10.416478989653367 19.28977590676549 -10.416478989653367
S 1789.2030804909316 901.593264363048 1789.2030804909316 937.8580430677671
z" fill="none" stroke="none"></path>
<circle cx="0" cy="0" r="7.796731354910697" fill="#0e3240" opacity="0.9">
  <animateMotion begin="-6.861764952848139s" dur="10s" repeatCount="indefinite">
    <mpath xlink:href="#path19"></mpath>
  </animateMotion>
</circle><path id="path20" d="M 1608.62353341955 654.8082539257149
c 0 33.09078634709085 -8.096681765777547 9.50480033373886 -17.601482099516407 9.50480033373886
S 1573.420569220517 687.8990402728058 1573.420569220517 654.8082539257149
s 8.096681765777547 -9.50480033373886 17.601482099516407 -9.50480033373886
S 1608.62353341955 621.717467578624 1608.62353341955 654.8082539257149
z" fill="none" stroke="none"></path>
<circle cx="0" cy="0" r="4.389921393325586" fill="#0e3240" opacity="0.9">
  <animateMotion begin="-3.7901943821718764s" dur="10s" repeatCount="indefinite">
    <mpath xlink:href="#path20"></mpath>
  </animateMotion>
</circle><path id="path21" d="M 2321.452067245397 185.22694586758783
c 0 23.690705908095467 -5.796662083895699 6.804777228921039 -12.601439312816737 6.804777228921039
S 2296.2491886197636 208.91765177568328 2296.2491886197636 185.22694586758783
s 5.796662083895699 -6.804777228921039 12.601439312816737 -6.804777228921039
S 2321.452067245397 161.53623995949238 2321.452067245397 185.22694586758783
z" fill="none" stroke="none"></path>
<circle cx="0" cy="0" r="6.822516708273677" fill="#0e3240" opacity="0.9">
  <animateMotion begin="-9.781738786634559s" dur="10s" repeatCount="indefinite">
    <mpath xlink:href="#path21"></mpath>
  </animateMotion>
</circle><path id="path22" d="M 749.3278459542523 373.0972916010597
c 0 35.4852784933287 -8.68256814198468 10.192579992764626 -18.875148134749306 10.192579992764626
S 711.5775496847536 408.58257009438836 711.5775496847536 373.0972916010597
s 8.68256814198468 -10.192579992764626 18.875148134749306 -10.192579992764626
S 749.3278459542523 337.612013107731 749.3278459542523 373.0972916010597
z" fill="none" stroke="none"></path>
<circle cx="0" cy="0" r="5.383753217216393" fill="#0e3240" opacity="0.9">
  <animateMotion begin="-6.9889732475162925s" dur="10s" repeatCount="indefinite">
    <mpath xlink:href="#path22"></mpath>
  </animateMotion>
</circle><path id="path23" d="M 1374.2879498988725 1034.0853616170402
c 0 27.922919830871336 -6.832203788404688 8.020413142909852 -14.85261693131454 8.020413142909852
S 1344.5827160362435 1062.0082814479115 1344.5827160362435 1034.0853616170402
s 6.832203788404688 -8.020413142909852 14.85261693131454 -8.020413142909852
S 1374.2879498988725 1006.1624417861689 1374.2879498988725 1034.0853616170402
z" fill="none" stroke="none"></path>
<circle cx="0" cy="0" r="7.707445865319577" fill="#fc5b50" opacity="0.9">
  <animateMotion begin="-3.1793403991778035s" dur="10s" repeatCount="indefinite">
    <mpath xlink:href="#path23"></mpath>
  </animateMotion>
</circle><path id="path24" d="M 110.85912342091557 578.1799837350405
c 0 22.24412624524777 -5.442711740858496 6.389270304486062 -11.831982045344558 6.389270304486062
S 87.19515933022645 600.4241099802883 87.19515933022645 578.1799837350405
s 5.442711740858496 -6.389270304486062 11.831982045344558 -6.389270304486062
S 110.85912342091557 555.9358574897927 110.85912342091557 578.1799837350405
z" fill="none" stroke="none"></path>
<circle cx="0" cy="0" r="4.612977700999824" fill="#fc5b50" opacity="0.9">
  <animateMotion begin="-7.795273934758164s" dur="10s" repeatCount="indefinite">
    <mpath xlink:href="#path24"></mpath>
  </animateMotion>
</circle><path id="path25" d="M 1357.6971926475808 452.9746490007384
c 0 34.288873625032494 -8.389830780593055 9.848931785913589 -18.238762566506644 9.848931785913589
S 1321.2196675145674 487.26352262577086 1321.2196675145674 452.9746490007384
s 8.389830780593055 -9.848931785913589 18.238762566506644 -9.848931785913589
S 1357.6971926475808 418.68577537570593 1357.6971926475808 452.9746490007384
z" fill="none" stroke="none"></path>
<circle cx="0" cy="0" r="4.694164290027152" fill="#0e3240" opacity="0.9">
  <animateMotion begin="-7.2543745055722075s" dur="10s" repeatCount="indefinite">
    <mpath xlink:href="#path25"></mpath>
  </animateMotion>
</circle><path id="path26" d="M 1226.4381933124498 763.1982933786009
c 0 31.754087731746264 -7.769617210959192 9.120854986778182 -16.890472197737374 9.120854986778182
S 1192.657248916975 794.9523811103471 1192.657248916975 763.1982933786009
s 7.769617210959192 -9.120854986778182 16.890472197737374 -9.120854986778182
S 1226.4381933124498 731.4442056468546 1226.4381933124498 763.1982933786009
z" fill="none" stroke="none"></path>
<circle cx="0" cy="0" r="7.708401981289858" fill="#0e3240" opacity="0.9">
  <animateMotion begin="-2.694902001477184s" dur="10s" repeatCount="indefinite">
    <mpath xlink:href="#path26"></mpath>
  </animateMotion>
</circle><path id="path27" d="M 1450.4355226760797 817.8070894518794
c 0 23.904761300027594 -5.8490373393684525 6.866261224476011 -12.715298563844463 6.866261224476011
S 1425.0049255483907 841.711850751907 1425.0049255483907 817.8070894518794
s 5.8490373393684525 -6.866261224476011 12.715298563844463 -6.866261224476011
S 1450.4355226760797 793.9023281518517 1450.4355226760797 817.8070894518794
z" fill="none" stroke="none"></path>
<circle cx="0" cy="0" r="7.231268672460588" fill="#fc5b50" opacity="0.9">
  <animateMotion begin="-9.744289906461947s" dur="10s" repeatCount="indefinite">
    <mpath xlink:href="#path27"></mpath>
  </animateMotion>
</circle><path id="path28" d="M 610.7413816235342 734.6768650802304
c 0 34.44069632045183 -8.426978886919063 9.892540432470206 -18.31951931938927 9.892540432470206
S 574.1023429847555 769.1175614006822 574.1023429847555 734.6768650802304
s 8.426978886919063 -9.892540432470206 18.31951931938927 -9.892540432470206
S 610.7413816235342 700.2361687597786 610.7413816235342 734.6768650802304
z" fill="none" stroke="none"></path>
<circle cx="0" cy="0" r="5.228393169920545" fill="#fc5b50" opacity="0.9">
  <animateMotion begin="-0.10347446644144664s" dur="10s" repeatCount="indefinite">
    <mpath xlink:href="#path28"></mpath>
  </animateMotion>
</circle><path id="path29" d="M 2192.7502807431824 439.0247636365034
c 0 24.313417873092632 -5.949027777458835 6.983641303973416 -12.932669081432252 6.983641303973416
S 2166.884942580318 463.33818150959604 2166.884942580318 439.0247636365034
s 5.949027777458835 -6.983641303973416 12.932669081432252 -6.983641303973416
S 2192.7502807431824 414.71134576341075 2192.7502807431824 439.0247636365034
z" fill="none" stroke="none"></path>
<circle cx="0" cy="0" r="6.20547923121283" fill="#fc5b50" opacity="0.9">
  <animateMotion begin="-1.6379757763247516s" dur="10s" repeatCount="indefinite">
    <mpath xlink:href="#path29"></mpath>
  </animateMotion>
</circle></g>
</svg>