<?xml version="1.0" encoding="utf-8"?>
<svg xmlns="http://www.w3.org/2000/svg" xmlns:xlink="http://www.w3.org/1999/xlink" style="margin: auto; background: rgb(241, 242, 243); display: block; z-index: 1; position: relative; shape-rendering: auto;" width="2560" height="1274" preserveAspectRatio="xMidYMid" viewBox="0 0 2560 1274">
<g transform="translate(1280,637) scale(1,1) translate(-1280,-637)"><path id="path0" d="M 2184.7072530002447 668.4195165689002
c 0 23.7853384476668 -5.819816854216344 6.831958915819188 -12.651775770035531 6.831958915819188
S 2159.403701460174 692.2048550165671 2159.403701460174 668.4195165689002
s 5.819816854216344 -6.831958915819188 12.651775770035531 -6.831958915819188
S 2184.7072530002447 644.6341781212334 2184.7072530002447 668.4195165689002
z" fill="none" stroke="none"></path>
<circle cx="0" cy="0" r="4.932717991163351" fill="#0e3240" opacity="0.9">
  <animateMotion begin="-2.145854724787184s" dur="10s" repeatCount="indefinite">
    <mpath xlink:href="#path0"></mpath>
  </animateMotion>
</circle><path id="path1" d="M 2466.5188558400077 370.8580607939272
c 0 23.982564735152096 -5.868074350090406 6.888609019671347 -12.756683369761753 6.888609019671347
S 2441.005489100484 394.8406255290793 2441.005489100484 370.8580607939272
s 5.868074350090406 -6.888609019671347 12.756683369761753 -6.888609019671347
S 2466.5188558400077 346.8754960587751 2466.5188558400077 370.8580607939272
z" fill="none" stroke="none"></path>
<circle cx="0" cy="0" r="3.707852107912003" fill="#fc5b50" opacity="0.9">
  <animateMotion begin="-8.995383203925048s" dur="10s" repeatCount="indefinite">
    <mpath xlink:href="#path1"></mpath>
  </animateMotion>
</circle><path id="path2" d="M 1934.8314018665678 896.0872949859065
c 0 34.880765770699746 -8.534655454532915 10.018943359669075 -18.55359881420199 10.018943359669075
S 1897.724204238164 930.9680607566063 1897.724204238164 896.0872949859065
s 8.534655454532915 -10.018943359669075 18.55359881420199 -10.018943359669075
S 1934.8314018665678 861.2065292152067 1934.8314018665678 896.0872949859065
z" fill="none" stroke="none"></path>
<circle cx="0" cy="0" r="3.9151235692627804" fill="#fc5b50" opacity="0.9">
  <animateMotion begin="-4.778044754091648s" dur="10s" repeatCount="indefinite">
    <mpath xlink:href="#path2"></mpath>
  </animateMotion>
</circle><path id="path3" d="M 414.24782764867103 712.4319434584423
c 0 24.2965523624585 -5.944901109963249 6.97879695517425 -12.923698065137499 6.97879695517425
S 388.40043151839603 736.7284958209009 388.40043151839603 712.4319434584423
s 5.944901109963249 -6.97879695517425 12.923698065137499 -6.97879695517425
S 414.24782764867103 688.1353910959838 414.24782764867103 712.4319434584423
z" fill="none" stroke="none"></path>
<circle cx="0" cy="0" r="3.7367017768578425" fill="#0e3240" opacity="0.9">
  <animateMotion begin="-3.3234226600881622s" dur="10s" repeatCount="indefinite">
    <mpath xlink:href="#path3"></mpath>
  </animateMotion>
</circle><path id="path4" d="M 1867.9468121348652 1004.8815160923009
c 0 21.966246334716146 -5.374719847856078 6.309453734439745 -11.684173582295823 6.309453734439745
S 1844.5784649702734 1026.847762427017 1844.5784649702734 1004.8815160923009
s 5.374719847856078 -6.309453734439745 11.684173582295823 -6.309453734439745
S 1867.9468121348652 982.9152697575847 1867.9468121348652 1004.8815160923009
z" fill="none" stroke="none"></path>
<circle cx="0" cy="0" r="4.739096174905166" fill="#0e3240" opacity="0.9">
  <animateMotion begin="-5.46320077247707s" dur="10s" repeatCount="indefinite">
    <mpath xlink:href="#path4"></mpath>
  </animateMotion>
</circle><path id="path5" d="M 2158.2437207587363 200.43786846691282
c 0 20.27103484542621 -4.959934057923434 5.822531285388379 -10.782465343311813 5.822531285388379
S 2136.678790072113 220.70890331233903 2136.678790072113 200.43786846691282
s 4.959934057923434 -5.822531285388379 10.782465343311813 -5.822531285388379
S 2158.2437207587363 180.1668336214866 2158.2437207587363 200.43786846691282
z" fill="none" stroke="none"></path>
<circle cx="0" cy="0" r="5.71102778170095" fill="#0e3240" opacity="0.9">
  <animateMotion begin="-3.2289631801577534s" dur="10s" repeatCount="indefinite">
    <mpath xlink:href="#path5"></mpath>
  </animateMotion>
</circle><path id="path6" d="M 2051.12885128002 522.0660860911883
c 0 36.91221533606856 -9.031712263080605 10.602444830572885 -19.634157093653492 10.602444830572885
S 2011.860537092713 558.9783014272568 2011.860537092713 522.0660860911883
s 9.031712263080605 -10.602444830572885 19.634157093653492 -10.602444830572885
S 2051.12885128002 485.15387075511967 2051.12885128002 522.0660860911883
z" fill="none" stroke="none"></path>
<circle cx="0" cy="0" r="5.97491245419763" fill="#0e3240" opacity="0.9">
  <animateMotion begin="-9.606684850328111s" dur="10s" repeatCount="indefinite">
    <mpath xlink:href="#path6"></mpath>
  </animateMotion>
</circle><path id="path7" d="M 2050.3649146497737 570.335154653865
c 0 19.301348154353082 -4.7226702930863915 5.544004257101417 -10.266674550187808 5.544004257101417
S 2029.831565549398 589.636502808218 2029.831565549398 570.335154653865
s 4.7226702930863915 -5.544004257101417 10.266674550187808 -5.544004257101417
S 2050.3649146497737 551.0338064995119 2050.3649146497737 570.335154653865
z" fill="none" stroke="none"></path>
<circle cx="0" cy="0" r="6.223960264902513" fill="#0e3240" opacity="0.9">
  <animateMotion begin="-4.80959030437941s" dur="10s" repeatCount="indefinite">
    <mpath xlink:href="#path7"></mpath>
  </animateMotion>
</circle><path id="path8" d="M 1088.311139887369 937.6302208512958
c 0 32.43798027337581 -7.936952620081314 9.317292206182413 -17.254244826263726 9.317292206182413
S 1053.8026502348418 970.0682011246716 1053.8026502348418 937.6302208512958
s 7.936952620081314 -9.317292206182413 17.254244826263726 -9.317292206182413
S 1088.311139887369 905.19224057792 1088.311139887369 937.6302208512958
z" fill="none" stroke="none"></path>
<circle cx="0" cy="0" r="6.609388296261667" fill="#fc5b50" opacity="0.9">
  <animateMotion begin="-3.7117475687507584s" dur="10s" repeatCount="indefinite">
    <mpath xlink:href="#path8"></mpath>
  </animateMotion>
</circle><path id="path9" d="M 1213.2968757163226 504.79265750719253
c 0 28.975906021401045 -7.089849345661957 8.322866623168386 -15.41271596883034 8.322866623168386
S 1182.471443778662 533.7685635285936 1182.471443778662 504.79265750719253
s 7.089849345661957 -8.322866623168386 15.41271596883034 -8.322866623168386
S 1213.2968757163226 475.8167514857915 1213.2968757163226 504.79265750719253
z" fill="none" stroke="none"></path>
<circle cx="0" cy="0" r="5.605125929418986" fill="#0e3240" opacity="0.9">
  <animateMotion begin="-4.410545090701568s" dur="10s" repeatCount="indefinite">
    <mpath xlink:href="#path9"></mpath>
  </animateMotion>
</circle><path id="path10" d="M 332.6113012220022 181.8126921149524
c 0 36.61298398825542 -8.958496082232708 10.516495400881876 -19.474991483114586 10.516495400881876
S 293.66131825577304 218.42567610320782 293.66131825577304 181.8126921149524
s 8.958496082232708 -10.516495400881876 19.474991483114586 -10.516495400881876
S 332.6113012220022 145.19970812669698 332.6113012220022 181.8126921149524
z" fill="none" stroke="none"></path>
<circle cx="0" cy="0" r="4.457743481455136" fill="#fc5b50" opacity="0.9">
  <animateMotion begin="-0.847042965924869s" dur="10s" repeatCount="indefinite">
    <mpath xlink:href="#path10"></mpath>
  </animateMotion>
</circle><path id="path11" d="M 668.1017050453489 847.0266778490554
c 0 29.840124636324497 -7.301307091866631 8.571099629582568 -15.872406721449199 8.571099629582568
S 636.3568916024504 876.8668024853799 636.3568916024504 847.0266778490554
s 7.301307091866631 -8.571099629582568 15.872406721449199 -8.571099629582568
S 668.1017050453489 817.1865532127309 668.1017050453489 847.0266778490554
z" fill="none" stroke="none"></path>
<circle cx="0" cy="0" r="5.975321303825029" fill="#fc5b50" opacity="0.9">
  <animateMotion begin="-1.8682775164124732s" dur="10s" repeatCount="indefinite">
    <mpath xlink:href="#path11"></mpath>
  </animateMotion>
</circle><path id="path12" d="M 1620.0645262062578 557.1154296435785
c 0 24.332397527011402 -5.953671735332576 6.989092906694764 -12.94276464202734 6.989092906694764
S 1594.178996922203 581.4478271705899 1594.178996922203 557.1154296435785
s 5.953671735332576 -6.989092906694764 12.94276464202734 -6.989092906694764
S 1620.0645262062578 532.7830321165671 1620.0645262062578 557.1154296435785
z" fill="none" stroke="none"></path>
<circle cx="0" cy="0" r="4.685008225818659" fill="#0e3240" opacity="0.9">
  <animateMotion begin="-1.613209127919193s" dur="10s" repeatCount="indefinite">
    <mpath xlink:href="#path12"></mpath>
  </animateMotion>
</circle><path id="path13" d="M 1296.152683264804 1115.251365970836
c 0 32.866667209424385 -8.041844104433626 9.440425687813386 -17.48226979224701 9.440425687813386
S 1261.1881436803098 1148.1180331802605 1261.1881436803098 1115.251365970836
s 8.041844104433626 -9.440425687813386 17.48226979224701 -9.440425687813386
S 1296.152683264804 1082.3846987614118 1296.152683264804 1115.251365970836
z" fill="none" stroke="none"></path>
<circle cx="0" cy="0" r="6.853741324516104" fill="#0e3240" opacity="0.9">
  <animateMotion begin="-8.66093547666598s" dur="10s" repeatCount="indefinite">
    <mpath xlink:href="#path13"></mpath>
  </animateMotion>
</circle><path id="path14" d="M 2456.0297792148062 502.40750694326204
c 0 28.504741300813112 -6.97456436083725 8.18753207576547 -15.162096436602718 8.18753207576547
S 2425.7055863416012 530.9122482440752 2425.7055863416012 502.40750694326204
s 6.97456436083725 -8.18753207576547 15.162096436602718 -8.18753207576547
S 2456.0297792148062 473.9027656424489 2456.0297792148062 502.40750694326204
z" fill="none" stroke="none"></path>
<circle cx="0" cy="0" r="4.719310424587658" fill="#fc5b50" opacity="0.9">
  <animateMotion begin="-6.04185347880329s" dur="10s" repeatCount="indefinite">
    <mpath xlink:href="#path14"></mpath>
  </animateMotion>
</circle><path id="path15" d="M 1936.071838287098 1061.38654680105
c 0 30.56371399896782 -7.478355552938934 8.778939127363097 -16.25729468030203 8.778939127363097
S 1903.557248926494 1091.9502608000178 1903.557248926494 1061.38654680105
s 7.478355552938934 -8.778939127363097 16.25729468030203 -8.778939127363097
S 1936.071838287098 1030.822832802082 1936.071838287098 1061.38654680105
z" fill="none" stroke="none"></path>
<circle cx="0" cy="0" r="3.829989550540686" fill="#0e3240" opacity="0.9">
  <animateMotion begin="-4.635977015292285s" dur="10s" repeatCount="indefinite">
    <mpath xlink:href="#path15"></mpath>
  </animateMotion>
</circle><path id="path16" d="M 1218.5572797414777 67.07268420312
c 0 19.603789296957245 -4.796671849255496 5.6308756491260175 -10.427547498381513 5.6308756491260175
S 1197.7021847447147 86.67647350007725 1197.7021847447147 67.07268420312
s 4.796671849255496 -5.6308756491260175 10.427547498381513 -5.6308756491260175
S 1218.5572797414777 47.46889490616276 1218.5572797414777 67.07268420312
z" fill="none" stroke="none"></path>
<circle cx="0" cy="0" r="5.77320202294584" fill="#fc5b50" opacity="0.9">
  <animateMotion begin="-6.73837166354607s" dur="10s" repeatCount="indefinite">
    <mpath xlink:href="#path16"></mpath>
  </animateMotion>
</circle><path id="path17" d="M 1490.52653025367 768.2180021618384
c 0 29.35654960528866 -7.182985541719565 8.43220041854036 -15.615185960259925 8.43220041854036
S 1459.2961583331503 797.5745517671271 1459.2961583331503 768.2180021618384
s 7.182985541719565 -8.43220041854036 15.615185960259925 -8.43220041854036
S 1490.52653025367 738.8614525565497 1490.52653025367 768.2180021618384
z" fill="none" stroke="none"></path>
<circle cx="0" cy="0" r="6.325342829347368" fill="#0e3240" opacity="0.9">
  <animateMotion begin="-0.5671513439272902s" dur="10s" repeatCount="indefinite">
    <mpath xlink:href="#path17"></mpath>
  </animateMotion>
</circle><path id="path18" d="M 2126.0072031150376 439.2267209172597
c 0 30.784015483435603 -7.532259107649136 8.842217213327247 -16.374476320976385 8.842217213327247
S 2093.2582504730844 470.0107364006953 2093.2582504730844 439.2267209172597
s 7.532259107649136 -8.842217213327247 16.374476320976385 -8.842217213327247
S 2126.0072031150376 408.4427054338241 2126.0072031150376 439.2267209172597
z" fill="none" stroke="none"></path>
<circle cx="0" cy="0" r="4.205303345453604" fill="#0e3240" opacity="0.9">
  <animateMotion begin="-3.200301924645317s" dur="10s" repeatCount="indefinite">
    <mpath xlink:href="#path18"></mpath>
  </animateMotion>
</circle><path id="path19" d="M 572.7340229140239 914.4664483640315
c 0 19.175013899611656 -4.691758720117745 5.507716758399092 -10.199475478516838 5.507716758399092
S 552.3350719569901 933.6414622636432 552.3350719569901 914.4664483640315
s 4.691758720117745 -5.507716758399092 10.199475478516838 -5.507716758399092
S 572.7340229140239 895.2914344644198 572.7340229140239 914.4664483640315
z" fill="none" stroke="none"></path>
<circle cx="0" cy="0" r="5.994552114479281" fill="#0e3240" opacity="0.9">
  <animateMotion begin="-5.575535302508412s" dur="10s" repeatCount="indefinite">
    <mpath xlink:href="#path19"></mpath>
  </animateMotion>
</circle><path id="path20" d="M 724.4811040409875 666.5276542765621
c 0 29.5135239247884 -7.221394151809927 8.477288786907307 -15.698682938717234 8.477288786907307
S 693.0837381635531 696.0411782013505 693.0837381635531 666.5276542765621
s 7.221394151809927 -8.477288786907307 15.698682938717234 -8.477288786907307
S 724.4811040409875 637.0141303517737 724.4811040409875 666.5276542765621
z" fill="none" stroke="none"></path>
<circle cx="0" cy="0" r="4.8085421223581974" fill="#fc5b50" opacity="0.9">
  <animateMotion begin="-1.3482414270488108s" dur="10s" repeatCount="indefinite">
    <mpath xlink:href="#path20"></mpath>
  </animateMotion>
</circle><path id="path21" d="M 1167.33882333545 421.5971371475719
c 0 24.105891306783047 -5.898250000595851 6.924032609395131 -12.822282609990982 6.924032609395131
S 1141.694258115468 445.703028454355 1141.694258115468 421.5971371475719
s 5.898250000595851 -6.924032609395131 12.822282609990982 -6.924032609395131
S 1167.33882333545 397.49124584078885 1167.33882333545 421.5971371475719
z" fill="none" stroke="none"></path>
<circle cx="0" cy="0" r="6.843832047056889" fill="#fc5b50" opacity="0.9">
  <animateMotion begin="-4.997642453196414s" dur="10s" repeatCount="indefinite">
    <mpath xlink:href="#path21"></mpath>
  </animateMotion>
</circle><path id="path22" d="M 1319.0949409901593 394.4127853472763
c 0 20.233084427091786 -4.950648317267139 5.811630633313598 -10.762278950580736 5.811630633313598
S 1297.5703830889977 414.6458697743681 1297.5703830889977 394.4127853472763
s 4.950648317267139 -5.811630633313598 10.762278950580736 -5.811630633313598
S 1319.0949409901593 374.17970092018453 1319.0949409901593 394.4127853472763
z" fill="none" stroke="none"></path>
<circle cx="0" cy="0" r="6.223235530169111" fill="#fc5b50" opacity="0.9">
  <animateMotion begin="-6.152760170515186s" dur="10s" repeatCount="indefinite">
    <mpath xlink:href="#path22"></mpath>
  </animateMotion>
</circle><path id="path23" d="M 1916.4177734464163 63.1845055962363
c 0 32.76925909229107 -8.01801020343292 9.41244676055169 -17.43045696398461 9.41244676055169
S 1881.556859518447 95.95376468852737 1881.556859518447 63.1845055962363
s 8.01801020343292 -9.41244676055169 17.43045696398461 -9.41244676055169
S 1916.4177734464163 30.415246503945227 1916.4177734464163 63.1845055962363
z" fill="none" stroke="none"></path>
<circle cx="0" cy="0" r="4.618709739603879" fill="#fc5b50" opacity="0.9">
  <animateMotion begin="-6.271467307982375s" dur="10s" repeatCount="indefinite">
    <mpath xlink:href="#path23"></mpath>
  </animateMotion>
</circle><path id="path24" d="M 1546.293595860475 706.7039020182666
c 0 23.427517206345605 -5.732264848361158 6.7291804741631 -12.46144532252426 6.7291804741631
S 1521.3707052154266 730.1314192246122 1521.3707052154266 706.7039020182666
s 5.732264848361158 -6.7291804741631 12.46144532252426 -6.7291804741631
S 1546.293595860475 683.276384811921 1546.293595860475 706.7039020182666
z" fill="none" stroke="none"></path>
<circle cx="0" cy="0" r="5.515460068723104" fill="#0e3240" opacity="0.9">
  <animateMotion begin="-2.9911009771739816s" dur="10s" repeatCount="indefinite">
    <mpath xlink:href="#path24"></mpath>
  </animateMotion>
</circle><path id="path25" d="M 1226.964314682683 234.9213909167588
c 0 35.21312296530501 -8.615976895766119 10.114407660247183 -18.730384556013302 10.114407660247183
S 1189.5035455706561 270.1345138820638 1189.5035455706561 234.9213909167588
s 8.615976895766119 -10.114407660247183 18.730384556013302 -10.114407660247183
S 1226.964314682683 199.7082679514538 1226.964314682683 234.9213909167588
z" fill="none" stroke="none"></path>
<circle cx="0" cy="0" r="4.997672742615312" fill="#0e3240" opacity="0.9">
  <animateMotion begin="-3.6043823236652672s" dur="10s" repeatCount="indefinite">
    <mpath xlink:href="#path25"></mpath>
  </animateMotion>
</circle><path id="path26" d="M 2204.022658009246 163.06305131436105
c 0 37.445245825966346 -9.162134616991764 10.755549332990334 -19.9176839499821 10.755549332990334
S 2164.187290109282 200.5082971403274 2164.187290109282 163.06305131436105
s 9.162134616991764 -10.755549332990334 19.9176839499821 -10.755549332990334
S 2204.022658009246 125.61780548839471 2204.022658009246 163.06305131436105
z" fill="none" stroke="none"></path>
<circle cx="0" cy="0" r="6.034712856743747" fill="#fc5b50" opacity="0.9">
  <animateMotion begin="-6.026223149553383s" dur="10s" repeatCount="indefinite">
    <mpath xlink:href="#path26"></mpath>
  </animateMotion>
</circle><path id="path27" d="M 1429.229549510653 1001.6954423183145
c 0 28.96722263810033 -7.087724688045825 8.320372459879882 -15.408097147925709 8.320372459879882
S 1398.4133552148016 1030.6626649564148 1398.4133552148016 1001.6954423183145
s 7.087724688045825 -8.320372459879882 15.408097147925709 -8.320372459879882
S 1429.229549510653 972.7282196802141 1429.229549510653 1001.6954423183145
z" fill="none" stroke="none"></path>
<circle cx="0" cy="0" r="6.8559747360485295" fill="#0e3240" opacity="0.9">
  <animateMotion begin="-6.013012968741145s" dur="10s" repeatCount="indefinite">
    <mpath xlink:href="#path27"></mpath>
  </animateMotion>
</circle><path id="path28" d="M 133.3360868254141 780.2974930923798
c 0 19.87702972633259 -4.863528550060101 5.709359602244468 -10.57288815230457 5.709359602244468
S 112.19031052080497 800.1745228187124 112.19031052080497 780.2974930923798
s 4.863528550060101 -5.709359602244468 10.57288815230457 -5.709359602244468
S 133.3360868254141 760.4204633660472 133.3360868254141 780.2974930923798
z" fill="none" stroke="none"></path>
<circle cx="0" cy="0" r="6.831803914627874" fill="#0e3240" opacity="0.9">
  <animateMotion begin="-6.995345529438815s" dur="10s" repeatCount="indefinite">
    <mpath xlink:href="#path28"></mpath>
  </animateMotion>
</circle><path id="path29" d="M 1318.4746098969486 408.55244743752235
c 0 26.615196720874057 -6.5122289848947155 7.644790547485102 -14.157019532379817 7.644790547485102
S 1290.160570832189 435.1676441583964 1290.160570832189 408.55244743752235
s 6.5122289848947155 -7.644790547485102 14.157019532379817 -7.644790547485102
S 1318.4746098969486 381.9372507166483 1318.4746098969486 408.55244743752235
z" fill="none" stroke="none"></path>
<circle cx="0" cy="0" r="4.881210997661178" fill="#0e3240" opacity="0.9">
  <animateMotion begin="-4.237229524664783s" dur="10s" repeatCount="indefinite">
    <mpath xlink:href="#path29"></mpath>
  </animateMotion>
</circle><path id="path30" d="M 733.652846587597 415.1747376693409
c 0 33.6715014314472 -8.238771626843462 9.671601474990153 -17.910373101833613 9.671601474990153
S 697.8321003839296 448.8462391007881 697.8321003839296 415.1747376693409
s 8.238771626843462 -9.671601474990153 17.910373101833613 -9.671601474990153
S 733.652846587597 381.5032362378937 733.652846587597 415.1747376693409
z" fill="none" stroke="none"></path>
<circle cx="0" cy="0" r="5.051347109051997" fill="#fc5b50" opacity="0.9">
  <animateMotion begin="-4.172287576504113s" dur="10s" repeatCount="indefinite">
    <mpath xlink:href="#path30"></mpath>
  </animateMotion>
</circle><path id="path31" d="M 429.9838827323908 27.694482336105132
c 0 28.031016159730303 -6.858652890146775 8.051462088433173 -14.910114978579948 8.051462088433173
S 400.1636527752309 55.72549849583544 400.1636527752309 27.694482336105132
s 6.858652890146775 -8.051462088433173 14.910114978579948 -8.051462088433173
S 429.9838827323908 -0.3365338236251709 429.9838827323908 27.694482336105132
z" fill="none" stroke="none"></path>
<circle cx="0" cy="0" r="5.762209717688316" fill="#0e3240" opacity="0.9">
  <animateMotion begin="-0.8431365759092091s" dur="10s" repeatCount="indefinite">
    <mpath xlink:href="#path31"></mpath>
  </animateMotion>
</circle><path id="path32" d="M 977.0512897296555 369.58230491161925
c 0 35.795560153645276 -8.758488122700438 10.281703448387473 -19.040191571087913 10.281703448387473
S 938.9709065874797 405.37786506526453 938.9709065874797 369.58230491161925
s 8.758488122700438 -10.281703448387473 19.040191571087913 -10.281703448387473
S 977.0512897296555 333.78674475797396 977.0512897296555 369.58230491161925
z" fill="none" stroke="none"></path>
<circle cx="0" cy="0" r="6.175252083638375" fill="#fc5b50" opacity="0.9">
  <animateMotion begin="-7.529158399685432s" dur="10s" repeatCount="indefinite">
    <mpath xlink:href="#path32"></mpath>
  </animateMotion>
</circle><path id="path33" d="M 1853.9538506731108 208.82268576518476
c 0 26.362493659443018 -6.450397384757333 7.572205625584696 -14.02260301034203 7.572205625584696
S 1825.9086446524268 235.1851794246278 1825.9086446524268 208.82268576518476
s 6.450397384757333 -7.572205625584696 14.02260301034203 -7.572205625584696
S 1853.9538506731108 182.46019210574173 1853.9538506731108 208.82268576518476
z" fill="none" stroke="none"></path>
<circle cx="0" cy="0" r="4.732122581448054" fill="#0e3240" opacity="0.9">
  <animateMotion begin="-1.6438552526088523s" dur="10s" repeatCount="indefinite">
    <mpath xlink:href="#path33"></mpath>
  </animateMotion>
</circle><path id="path34" d="M 1182.0782069223862 346.51190458346986
c 0 29.76112214128325 -7.281976694143773 8.548407423560082 -15.830384117703854 8.548407423560082
S 1150.4174386869784 376.2730267247531 1150.4174386869784 346.51190458346986
s 7.281976694143773 -8.548407423560082 15.830384117703854 -8.548407423560082
S 1182.0782069223862 316.7507824421866 1182.0782069223862 346.51190458346986
z" fill="none" stroke="none"></path>
<circle cx="0" cy="0" r="6.888994936550319" fill="#0e3240" opacity="0.9">
  <animateMotion begin="-6.982318772114935s" dur="10s" repeatCount="indefinite">
    <mpath xlink:href="#path34"></mpath>
  </animateMotion>
</circle><path id="path35" d="M 1751.218240470346 223.66020085448832
c 0 32.75193415108766 -8.01377112207464 9.40747044765284 -17.421241569727478 9.40747044765284
S 1716.375757330891 256.412135005576 1716.375757330891 223.66020085448832
s 8.01377112207464 -9.40747044765284 17.421241569727478 -9.40747044765284
S 1751.218240470346 190.90826670340067 1751.218240470346 223.66020085448832
z" fill="none" stroke="none"></path>
<circle cx="0" cy="0" r="3.8029909329038114" fill="#fc5b50" opacity="0.9">
  <animateMotion begin="-2.5319072657140396s" dur="10s" repeatCount="indefinite">
    <mpath xlink:href="#path35"></mpath>
  </animateMotion>
</circle><path id="path36" d="M 661.8764287797406 683.9321835217382
c 0 28.57984437211497 -6.992940644240896 8.209104234543661 -15.202044878784557 8.209104234543661
S 631.4723390221715 712.5120278938532 631.4723390221715 683.9321835217382
s 6.992940644240896 -8.209104234543661 15.202044878784557 -8.209104234543661
S 661.8764287797406 655.3523391496233 661.8764287797406 683.9321835217382
z" fill="none" stroke="none"></path>
<circle cx="0" cy="0" r="3.840703301812353" fill="#0e3240" opacity="0.9">
  <animateMotion begin="-5.512159187836279s" dur="10s" repeatCount="indefinite">
    <mpath xlink:href="#path36"></mpath>
  </animateMotion>
</circle><path id="path37" d="M 781.169375608263 655.3234597633883
c 0 32.162539878018045 -7.869557629727819 9.238176347941353 -17.107733977669174 9.238176347941353
S 746.9539076529245 687.4859996414064 746.9539076529245 655.3234597633883
s 7.869557629727819 -9.238176347941353 17.107733977669174 -9.238176347941353
S 781.169375608263 623.1609198853703 781.169375608263 655.3234597633883
z" fill="none" stroke="none"></path>
<circle cx="0" cy="0" r="3.5368257907190257" fill="#fc5b50" opacity="0.9">
  <animateMotion begin="-9.526626151371406s" dur="10s" repeatCount="indefinite">
    <mpath xlink:href="#path37"></mpath>
  </animateMotion>
</circle><path id="path38" d="M 1940.716275814769 855.8284441768045
c 0 26.3307010890482 -6.442618351575622 7.563073717067036 -14.00569206864266 7.563073717067036
S 1912.7048916774836 882.1591452658527 1912.7048916774836 855.8284441768045
s 6.442618351575622 -7.563073717067036 14.00569206864266 -7.563073717067036
S 1940.716275814769 829.4977430877564 1940.716275814769 855.8284441768045
z" fill="none" stroke="none"></path>
<circle cx="0" cy="0" r="4.961958501770103" fill="#fc5b50" opacity="0.9">
  <animateMotion begin="-1.6615668228059222s" dur="10s" repeatCount="indefinite">
    <mpath xlink:href="#path38"></mpath>
  </animateMotion>
</circle><path id="path39" d="M 544.7260146471203 436.80657122330575
c 0 36.131020277419424 -8.840568791283475 10.378059015854516 -19.21862780713799 10.378059015854516
S 506.2887590328444 472.93759150072515 506.2887590328444 436.80657122330575
s 8.840568791283475 -10.378059015854516 19.21862780713799 -10.378059015854516
S 544.7260146471203 400.67555094588636 544.7260146471203 436.80657122330575
z" fill="none" stroke="none"></path>
<circle cx="0" cy="0" r="3.964463245075388" fill="#fc5b50" opacity="0.9">
  <animateMotion begin="-7.208726235521976s" dur="10s" repeatCount="indefinite">
    <mpath xlink:href="#path39"></mpath>
  </animateMotion>
</circle><path id="path40" d="M 614.7430389184419 319.665524186751
c 0 20.55953111889017 -5.030523571643339 5.905397236276964 -10.935920807920303 5.905397236276964
S 592.8711973026013 340.22505530564115 592.8711973026013 319.665524186751
s 5.030523571643339 -5.905397236276964 10.935920807920303 -5.905397236276964
S 614.7430389184419 299.1059930678608 614.7430389184419 319.665524186751
z" fill="none" stroke="none"></path>
<circle cx="0" cy="0" r="3.718294708389821" fill="#0e3240" opacity="0.9">
  <animateMotion begin="-6.7128058158062505s" dur="10s" repeatCount="indefinite">
    <mpath xlink:href="#path40"></mpath>
  </animateMotion>
</circle><path id="path41" d="M 482.47517915638315 831.972380588174
c 0 36.71784455408265 -8.98415345472235 10.546614925108846 -19.530768379831194 10.546614925108846
S 443.4136423967207 868.6902251422566 443.4136423967207 831.972380588174
s 8.98415345472235 -10.546614925108846 19.530768379831194 -10.546614925108846
S 482.47517915638315 795.2545360340914 482.47517915638315 831.972380588174
z" fill="none" stroke="none"></path>
<circle cx="0" cy="0" r="5.491367127265809" fill="#fc5b50" opacity="0.9">
  <animateMotion begin="-0.3008610651600496s" dur="10s" repeatCount="indefinite">
    <mpath xlink:href="#path41"></mpath>
  </animateMotion>
</circle><path id="path42" d="M 2529.1211435930204 399.5678991229713
c 0 34.258392157620285 -8.382372549204963 9.840176470805828 -18.22254902001079 9.840176470805828
S 2492.676045552999 433.8262912805916 2492.676045552999 399.5678991229713
s 8.382372549204963 -9.840176470805828 18.22254902001079 -9.840176470805828
S 2529.1211435930204 365.30950696535103 2529.1211435930204 399.5678991229713
z" fill="none" stroke="none"></path>
<circle cx="0" cy="0" r="4.275182864386872" fill="#0e3240" opacity="0.9">
  <animateMotion begin="-4.091439446624108s" dur="10s" repeatCount="indefinite">
    <mpath xlink:href="#path42"></mpath>
  </animateMotion>
</circle><path id="path43" d="M 1235.5833823821065 1158.1253956696287
c 0 24.199212485982414 -5.9210839061446325 6.950837628952396 -12.871921535097028 6.950837628952396
S 1209.8395393119124 1182.324608155611 1209.8395393119124 1158.1253956696287
s 5.9210839061446325 -6.950837628952396 12.871921535097028 -6.950837628952396
S 1235.5833823821065 1133.9261831836463 1235.5833823821065 1158.1253956696287
z" fill="none" stroke="none"></path>
<circle cx="0" cy="0" r="5.30150230777943" fill="#0e3240" opacity="0.9">
  <animateMotion begin="-6.787671141300242s" dur="10s" repeatCount="indefinite">
    <mpath xlink:href="#path43"></mpath>
  </animateMotion>
</circle><path id="path44" d="M 2370.4187128400617 391.15541394877795
c 0 22.666014623856313 -5.545939748390373 6.510451008980005 -12.056390757370378 6.510451008980005
S 2346.3059313253207 413.82142857263426 2346.3059313253207 391.15541394877795
s 5.545939748390373 -6.510451008980005 12.056390757370378 -6.510451008980005
S 2370.4187128400617 368.48939932492164 2370.4187128400617 391.15541394877795
z" fill="none" stroke="none"></path>
<circle cx="0" cy="0" r="4.4279420263348355" fill="#0e3240" opacity="0.9">
  <animateMotion begin="-1.5292161950601835s" dur="10s" repeatCount="indefinite">
    <mpath xlink:href="#path44"></mpath>
  </animateMotion>
</circle><path id="path45" d="M 2549.167618142559 704.7737520449762
c 0 35.91387234224088 -8.787436849697237 10.315686736601105 -19.10312358629834 10.315686736601105
S 2510.9613709699624 740.687624387217 2510.9613709699624 704.7737520449762
s 8.787436849697237 -10.315686736601105 19.10312358629834 -10.315686736601105
S 2549.167618142559 668.8598797027353 2549.167618142559 704.7737520449762
z" fill="none" stroke="none"></path>
<circle cx="0" cy="0" r="6.725316363829316" fill="#0e3240" opacity="0.9">
  <animateMotion begin="-8.340354738361395s" dur="10s" repeatCount="indefinite">
    <mpath xlink:href="#path45"></mpath>
  </animateMotion>
</circle><path id="path46" d="M 617.0677329924669 190.93786944715154
c 0 26.806251462430474 -6.558976421658519 7.699667973251306 -14.258644394909826 7.699667973251306
S 588.5504442026471 217.74412090958202 588.5504442026471 190.93786944715154
s 6.558976421658519 -7.699667973251306 14.258644394909826 -7.699667973251306
S 617.0677329924669 164.13161798472106 617.0677329924669 190.93786944715154
z" fill="none" stroke="none"></path>
<circle cx="0" cy="0" r="4.750544737126967" fill="#0e3240" opacity="0.9">
  <animateMotion begin="-2.3847092908284395s" dur="10s" repeatCount="indefinite">
    <mpath xlink:href="#path46"></mpath>
  </animateMotion>
</circle><path id="path47" d="M 1982.9210307743137 267.6510387311397
c 0 31.883088440793895 -7.801181214236803 9.157908381930161 -16.959089596166965 9.157908381930161
S 1949.00285158198 299.53412717193356 1949.00285158198 267.6510387311397
s 7.801181214236803 -9.157908381930161 16.959089596166965 -9.157908381930161
S 1982.9210307743137 235.7679502903458 1982.9210307743137 267.6510387311397
z" fill="none" stroke="none"></path>
<circle cx="0" cy="0" r="5.660942516628646" fill="#fc5b50" opacity="0.9">
  <animateMotion begin="-5.22721344681732s" dur="10s" repeatCount="indefinite">
    <mpath xlink:href="#path47"></mpath>
  </animateMotion>
</circle><path id="path48" d="M 1765.78033051364 845.3853949321893
c 0 37.43422833339026 -9.159438847531659 10.752384734058905 -19.911823581590564 10.752384734058905
S 1725.9566833504587 882.8196232655796 1725.9566833504587 845.3853949321893
s 9.159438847531659 -10.752384734058905 19.911823581590564 -10.752384734058905
S 1765.78033051364 807.9511665987991 1765.78033051364 845.3853949321893
z" fill="none" stroke="none"></path>
<circle cx="0" cy="0" r="6.74015097806332" fill="#fc5b50" opacity="0.9">
  <animateMotion begin="-7.806677535968436s" dur="10s" repeatCount="indefinite">
    <mpath xlink:href="#path48"></mpath>
  </animateMotion>
</circle><path id="path49" d="M 899.766259092696 1031.5988010160836
c 0 24.382673856409166 -5.965973390397987 7.00353398003242 -12.969507370430406 7.00353398003242
S 873.8272443518352 1055.9814748724928 873.8272443518352 1031.5988010160836
s 5.965973390397987 -7.00353398003242 12.969507370430406 -7.00353398003242
S 899.766259092696 1007.2161271596744 899.766259092696 1031.5988010160836
z" fill="none" stroke="none"></path>
<circle cx="0" cy="0" r="4.751420025277921" fill="#0e3240" opacity="0.9">
  <animateMotion begin="-5.218138783212236s" dur="10s" repeatCount="indefinite">
    <mpath xlink:href="#path49"></mpath>
  </animateMotion>
</circle></g>
</svg>