<?xml version="1.0" encoding="UTF-8" standalone="no"?>
<!DOCTYPE svg PUBLIC "-//W3C//DTD SVG 1.1//EN" "http://www.w3.org/Graphics/SVG/1.1/DTD/svg11.dtd">
<svg width="100%" height="100%" viewBox="0 0 2450 567" version="1.1" xmlns="http://www.w3.org/2000/svg" xmlns:xlink="http://www.w3.org/1999/xlink" xml:space="preserve" xmlns:serif="http://www.serif.com/" style="fill-rule:evenodd;clip-rule:evenodd;stroke-linejoin:round;stroke-miterlimit:2;">
    <g transform="matrix(0.862763,0,0,0.862763,94.328,69.6358)">
        <path d="M771.537,217.811C753.886,217.811 741.133,222.71 733.279,232.508C725.424,242.305 721.497,255.706 721.497,272.71C721.497,280.969 722.469,288.458 724.412,295.179C726.356,301.899 729.271,307.689 733.157,312.547C737.044,317.405 741.902,321.17 747.732,323.843C753.562,326.515 760.363,327.851 768.136,327.851C772.347,327.851 775.95,327.77 778.946,327.608C781.942,327.446 784.574,327.122 786.841,326.636L786.841,268.094L824.735,268.094L824.735,351.413C820.201,353.194 812.913,355.097 802.873,357.121C792.833,359.146 780.444,360.158 765.707,360.158C753.076,360.158 741.619,358.215 731.335,354.328C721.052,350.441 712.267,344.773 704.979,337.324C697.692,329.875 692.065,320.725 688.097,309.875C684.129,299.025 682.146,286.636 682.146,272.71C682.146,258.621 684.332,246.151 688.704,235.301C693.077,224.451 699.068,215.261 706.68,207.731C714.291,200.2 723.238,194.492 733.522,190.605C743.805,186.719 754.776,184.775 766.436,184.775C774.371,184.775 781.537,185.302 787.934,186.354C794.33,187.407 799.836,188.621 804.452,189.998C809.067,191.374 812.873,192.791 815.869,194.249C818.865,195.706 821.01,196.84 822.306,197.65L811.375,228.014C806.193,225.261 800.241,222.872 793.521,220.848C786.8,218.824 779.472,217.811 771.537,217.811Z" style="fill:white;fill-rule:nonzero;"/>
        <path d="M909.268,186.719C934.531,186.719 953.883,191.213 967.324,200.2C980.766,209.188 987.486,223.155 987.486,242.103C987.486,253.924 984.774,263.519 979.349,270.888C973.923,278.256 966.11,284.045 955.908,288.256C959.308,292.466 962.871,297.284 966.596,302.709C970.32,308.134 974.004,313.802 977.648,319.713C981.292,325.624 984.814,331.778 988.215,338.174C991.616,344.571 994.773,350.846 997.688,357L955.327,357C952.237,351.494 949.108,345.907 945.939,340.239C942.769,334.571 939.519,329.065 936.186,323.721C932.854,318.377 929.562,313.316 926.31,308.539C923.059,303.762 919.807,299.43 916.556,295.543L897.852,295.543L897.852,357L859.957,357L859.957,191.091C868.216,189.472 876.759,188.338 885.584,187.69C894.41,187.043 902.305,186.719 909.268,186.719ZM911.455,219.026C908.702,219.026 906.232,219.107 904.046,219.269C901.86,219.431 899.795,219.593 897.852,219.755L897.852,265.422L908.54,265.422C922.79,265.422 932.993,263.641 939.147,260.078C945.3,256.515 948.377,250.443 948.377,241.86C948.377,233.601 945.26,227.73 939.025,224.249C932.79,220.767 923.6,219.026 911.455,219.026Z" style="fill:white;fill-rule:nonzero;"/>
        <rect x="1021.98" y="188.662" width="37.894" height="168.338" style="fill:white;fill-rule:nonzero;"/>
        <path d="M1144.65,328.093C1149.99,328.093 1154.41,327.648 1157.89,326.757C1161.37,325.867 1164.16,324.652 1166.27,323.114C1168.38,321.575 1169.83,319.753 1170.64,317.648C1171.45,315.543 1171.86,313.195 1171.86,310.604C1171.86,305.098 1169.27,300.523 1164.08,296.879C1158.9,293.236 1149.99,289.309 1137.36,285.098C1131.86,283.155 1126.35,280.928 1120.85,278.418C1115.34,275.908 1110.4,272.75 1106.03,268.944C1101.65,265.139 1098.09,260.523 1095.34,255.098C1092.59,249.673 1091.21,243.074 1091.21,235.301C1091.21,227.528 1092.67,220.524 1095.58,214.289C1098.5,208.054 1102.63,202.751 1107.97,198.378C1113.32,194.006 1119.79,190.646 1127.4,188.298C1135.02,185.949 1143.6,184.775 1153.15,184.775C1164.49,184.775 1174.29,185.99 1182.54,188.419C1190.8,190.848 1197.61,193.52 1202.95,196.435L1192.02,226.313C1187.32,223.884 1182.1,221.738 1176.35,219.876C1170.6,218.014 1163.68,217.083 1155.58,217.083C1146.51,217.083 1139.99,218.338 1136.03,220.848C1132.06,223.358 1130.08,227.204 1130.08,232.386C1130.08,235.463 1130.8,238.054 1132.26,240.159C1133.72,242.265 1135.78,244.167 1138.46,245.868C1141.13,247.568 1144.2,249.107 1147.69,250.483C1151.17,251.86 1155.01,253.277 1159.23,254.734C1167.97,257.973 1175.58,261.171 1182.06,264.329C1188.54,267.487 1193.92,271.171 1198.21,275.382C1202.5,279.592 1205.7,284.531 1207.81,290.199C1209.91,295.867 1210.96,302.75 1210.96,310.847C1210.96,326.555 1205.46,338.741 1194.45,347.405C1183.43,356.069 1166.84,360.401 1144.65,360.401C1137.2,360.401 1130.48,359.955 1124.49,359.065C1118.5,358.174 1113.19,357.081 1108.58,355.785C1103.96,354.49 1100,353.113 1096.67,351.656C1093.36,350.198 1090.56,348.822 1088.3,347.526L1098.98,317.405C1104,320.158 1110.2,322.628 1117.57,324.814C1124.93,327 1133.96,328.093 1144.65,328.093Z" style="fill:white;fill-rule:nonzero;"/>
        <path d="M1316.88,360.401C1289.51,360.401 1268.66,352.79 1254.33,337.567C1239.99,322.345 1232.83,300.725 1232.83,272.71C1232.83,258.783 1235.01,246.354 1239.39,235.423C1243.76,224.491 1249.75,215.261 1257.36,207.731C1264.97,200.2 1274.04,194.492 1284.57,190.605C1295.09,186.719 1306.51,184.775 1318.82,184.775C1325.94,184.775 1332.42,185.302 1338.25,186.354C1344.08,187.407 1349.18,188.621 1353.56,189.998C1357.93,191.374 1361.57,192.791 1364.49,194.249C1367.4,195.706 1369.51,196.84 1370.8,197.65L1359.87,228.257C1354.69,225.504 1348.66,223.155 1341.77,221.212C1334.89,219.269 1327.08,218.297 1318.33,218.297C1312.5,218.297 1306.79,219.269 1301.21,221.212C1295.62,223.155 1290.68,226.273 1286.39,230.564C1282.1,234.856 1278.66,240.402 1276.07,247.204C1273.48,254.005 1272.18,262.264 1272.18,271.981C1272.18,279.754 1273.03,287.001 1274.73,293.721C1276.43,300.442 1279.18,306.231 1282.99,311.09C1286.79,315.948 1291.77,319.794 1297.93,322.628C1304.08,325.462 1311.53,326.879 1320.28,326.879C1325.78,326.879 1330.72,326.555 1335.09,325.907C1339.47,325.259 1343.35,324.49 1346.75,323.6C1350.15,322.709 1353.15,321.697 1355.74,320.563C1358.33,319.43 1360.68,318.377 1362.79,317.405L1373.23,347.769C1367.89,351.008 1360.36,353.923 1350.64,356.514C1340.92,359.105 1329.67,360.401 1316.88,360.401Z" style="fill:white;fill-rule:nonzero;"/>
        <path d="M1499.06,188.662L1536.95,188.662L1536.95,357L1499.06,357L1499.06,285.584L1435.42,285.584L1435.42,357L1397.52,357L1397.52,188.662L1435.42,188.662L1435.42,253.034L1499.06,253.034L1499.06,188.662Z" style="fill:white;fill-rule:nonzero;"/>
        <path d="M1688.75,357C1686.88,351.15 1684.87,345.142 1682.71,338.977C1680.56,332.812 1678.41,326.674 1676.27,320.563L1610.53,320.563C1608.4,326.702 1606.27,332.857 1604.13,339.028C1602,345.2 1600.01,351.19 1598.17,357L1558.82,357C1565.15,338.863 1571.16,322.102 1576.85,306.717C1582.53,291.333 1588.09,276.839 1593.54,263.236C1598.98,249.633 1604.34,236.718 1609.62,224.491C1614.9,212.265 1620.38,200.322 1626.06,188.662L1661.99,188.662C1667.52,200.322 1672.97,212.265 1678.34,224.491C1683.7,236.718 1689.12,249.633 1694.57,263.236C1700.02,276.839 1705.59,291.333 1711.28,306.717C1716.97,322.102 1722.99,338.863 1729.34,357L1688.75,357ZM1643.23,226.799C1642.38,229.243 1641.14,232.57 1639.52,236.778C1637.89,240.985 1636.04,245.847 1633.95,251.362C1631.88,256.877 1629.55,262.949 1626.98,269.58C1624.41,276.211 1621.8,283.165 1619.14,290.442L1667.28,290.442C1664.71,283.142 1662.21,276.167 1659.8,269.516C1657.38,262.865 1655.09,256.781 1652.92,251.265C1650.74,245.749 1648.84,240.889 1647.2,236.686C1645.56,232.484 1644.23,229.188 1643.23,226.799Z" style="fill:white;fill-rule:nonzero;"/>
        <path d="M1934.11,188.662L1934.11,220.969L1883.35,220.969L1883.35,357L1845.45,357L1845.45,220.969L1794.68,220.969L1794.68,188.662L1934.11,188.662Z" style="fill:rgb(252,91,80);fill-rule:nonzero;"/>
        <path d="M2051.42,357C2049.55,351.15 2047.54,345.142 2045.38,338.977C2043.22,332.812 2041.08,326.674 2038.94,320.563L1973.19,320.563C1971.07,326.702 1968.94,332.857 1966.8,339.028C1964.67,345.2 1962.68,351.19 1960.84,357L1921.48,357C1927.82,338.863 1933.83,322.102 1939.51,306.717C1945.2,291.333 1950.76,276.839 1956.2,263.236C1961.64,249.633 1967,236.718 1972.28,224.491C1977.56,212.265 1983.05,200.322 1988.73,188.662L2024.65,188.662C2030.18,200.322 2035.63,212.265 2041,224.491C2046.37,236.718 2051.78,249.633 2057.23,263.236C2062.68,276.839 2068.26,291.333 2073.95,306.717C2079.64,322.102 2085.66,338.863 2092.01,357L2051.42,357ZM2005.89,226.799C2005.05,229.243 2003.81,232.57 2002.18,236.778C2000.56,240.985 1998.7,245.847 1996.62,251.362C1994.54,256.877 1992.22,262.949 1989.65,269.58C1987.08,276.211 1984.47,283.165 1981.81,290.442L2029.95,290.442C2027.38,283.142 2024.88,276.167 2022.47,269.516C2020.05,262.865 2017.76,256.781 2015.59,251.265C2013.41,245.749 2011.51,240.889 2009.87,236.686C2008.23,232.484 2006.9,229.188 2005.89,226.799Z" style="fill:rgb(252,91,80);fill-rule:nonzero;"/>
        <path d="M2226.58,357C2215.73,337.729 2203.99,318.701 2191.36,299.916C2178.73,281.13 2165.29,263.398 2151.03,246.718L2151.03,357L2113.63,357L2113.63,188.662L2144.48,188.662C2149.82,194.006 2155.73,200.565 2162.21,208.338C2168.69,216.111 2175.29,224.41 2182.01,233.236C2188.73,242.062 2195.41,251.212 2202.05,260.685C2208.69,270.159 2214.92,279.268 2220.75,288.013L2220.75,188.662L2258.4,188.662L2258.4,357L2226.58,357Z" style="fill:rgb(252,91,80);fill-rule:nonzero;"/>
        <path d="M2416.05,214.896C2410.87,220.241 2404.71,227.164 2397.58,235.665C2390.45,244.167 2383.08,253.438 2375.47,263.479C2367.85,273.519 2360.32,283.883 2352.87,294.572C2345.41,305.26 2338.77,315.462 2332.94,325.179L2418.72,325.179L2418.72,357L2286.34,357L2286.34,334.409C2290.87,326.15 2296.42,316.96 2302.98,306.839C2309.53,296.717 2316.38,286.515 2323.5,276.232C2330.63,265.948 2337.88,255.989 2345.24,246.354C2352.61,236.718 2359.45,228.095 2365.77,220.483L2290.22,220.483L2290.22,188.662L2416.05,188.662L2416.05,214.896Z" style="fill:rgb(252,91,80);fill-rule:nonzero;"/>
        <path d="M2445.44,357L2445.44,188.662L2559.13,188.662L2559.13,220.483L2483.34,220.483L2483.34,253.519L2550.62,253.519L2550.62,284.612L2483.34,284.612L2483.34,325.179L2564.71,325.179L2564.71,357L2445.44,357Z" style="fill:rgb(252,91,80);fill-rule:nonzero;"/>
        <path d="M2641.96,186.719C2667.22,186.719 2686.58,191.213 2700.02,200.2C2713.46,209.188 2720.18,223.155 2720.18,242.103C2720.18,253.924 2717.47,263.519 2712.04,270.888C2706.62,278.256 2698.8,284.045 2688.6,288.256C2692,292.466 2695.56,297.284 2699.29,302.709C2703.01,308.134 2706.7,313.802 2710.34,319.713C2713.98,325.624 2717.51,331.778 2720.91,338.174C2724.31,344.571 2727.47,350.846 2730.38,357L2688.02,357C2684.93,351.494 2681.8,345.907 2678.63,340.239C2675.46,334.571 2672.21,329.065 2668.88,323.721C2665.55,318.377 2662.25,313.316 2659,308.539C2655.75,303.762 2652.5,299.43 2649.25,295.543L2630.54,295.543L2630.54,357L2592.65,357L2592.65,191.091C2600.91,189.472 2609.45,188.338 2618.28,187.69C2627.1,187.043 2635,186.719 2641.96,186.719ZM2644.15,219.026C2641.39,219.026 2638.92,219.107 2636.74,219.269C2634.55,219.431 2632.49,219.593 2630.54,219.755L2630.54,265.422L2641.23,265.422C2655.48,265.422 2665.68,263.641 2671.84,260.078C2677.99,256.515 2681.07,250.443 2681.07,241.86C2681.07,233.601 2677.95,227.73 2671.72,224.249C2665.48,220.767 2656.29,219.026 2644.15,219.026Z" style="fill:rgb(252,91,80);fill-rule:nonzero;"/>
    </g>
    <g transform="matrix(1.06667,0,0,1.06667,-123.267,-16.5764)">
        <circle cx="1804" cy="205" r="15" style="fill:white;"/>
    </g>
    <g transform="matrix(1.06667,0,0,1.06667,-76.2667,-16.5764)">
        <circle cx="1804" cy="205" r="15" style="fill:white;"/>
    </g>
    <g transform="matrix(4.16667,0,0,4.16667,62.5,0)">
        <g transform="matrix(-1,0,0,1,120.357,-0.001)">
            <path d="M104.312,11.497L104.312,27.949C115.326,37.953 122.255,52.375 122.255,68.379C122.255,90.052 109.555,108.821 91.21,117.621L91.21,56.906L78.107,56.906L78.107,135.254C110.484,130.23 135.357,102.155 135.357,68.379C135.357,44.55 122.978,23.555 104.312,11.497Z" style="fill:white;fill-rule:nonzero;"/>
        </g>
        <g transform="matrix(-1,0,0,1,120.357,-0.001)">
            <path d="M57.238,79.853L57.238,14.812C60.623,14.146 64.11,13.803 67.678,13.803C76.1,13.803 84.085,15.718 91.21,19.137L91.21,4.922C83.878,2.192 75.95,0.701 67.678,0.701C30.357,0.701 0,31.058 0,68.379C0,104.805 28.911,134.6 65.005,136.001L65.005,122.886C36.15,121.499 13.102,97.578 13.102,68.379C13.102,46.707 25.802,27.949 44.136,19.149L44.136,79.853L57.238,79.853Z" style="fill:rgb(252,91,80);fill-rule:nonzero;"/>
        </g>
    </g>
</svg>
